<svg xmlns="http://www.w3.org/2000/svg" width="32" height="32" viewBox="0 0 32 32"><g transform="translate(-443 -1303.172)"><path fill="#2b4255" fill-rule="evenodd" style="line-height:normal;text-indent:0;text-align:start;text-decoration-line:none;text-decoration-style:solid;text-decoration-color:#000;text-transform:none;block-progression:tb;isolation:auto;mix-blend-mode:normal" d="m 462.34375,1310.3828 a 0.50005,0.50005 0 0 0 -0.0352,0 c -2.84363,0.2199 -5.2801,2.0928 -6.33203,4.7754 -0.28215,-0.042 -0.56368,-0.095 -0.84961,-0.096 a 0.50005,0.50005 0 0 0 -0.002,0 c -2.87615,9e-4 -5.23793,2.1213 -5.75195,4.9238 -0.40283,-0.1023 -0.804,-0.219 -1.22071,-0.2207 a 0.50005,0.50005 0 0 0 -0.002,0 c -2.84136,1e-4 -5.15031,2.3389 -5.15039,5.2031 8e-5,2.8642 2.30903,5.2011 5.15039,5.2012 0.11175,0 0.19395,-0.01 0.26367,-0.016 -0.0854,0 -0.0463,0.016 0.12305,0.016 l 20.53711,0 0.38867,0 c 0.45007,0 0.86458,-0.1011 1.24219,-0.2383 2.53984,-0.7345 4.29255,-3.08 4.29492,-5.7461 a 0.50005,0.50005 0 0 0 0,-0 c -0.002,-2.1155 -1.10015,-4.0055 -2.78516,-5.0703 a 0.50005,0.50005 0 1 0 -0.5332,0.8457 c 1.39957,0.8845 2.31654,2.4562 2.31836,4.2266 -0.003,2.2342 -1.46819,4.1876 -3.58789,4.793 a 0.50005,0.50005 0 0 0 -0.0352,0.012 c -0.30569,0.1123 -0.60578,0.1797 -0.91406,0.1797 l -0.38867,0 -20.53711,0 c 0.0858,0 0.0461,-0.016 -0.12305,-0.016 a 0.50005,0.50005 0 0 0 -0.0351,0 c -0.10267,0.01 -0.17854,0.014 -0.22852,0.014 -2.29486,-10e-5 -4.15033,-1.8714 -4.15039,-4.2012 6e-5,-2.3291 1.8545,-4.2019 4.14844,-4.2031 0.47862,0 0.95244,0.088 1.40234,0.2539 a 0.50005,0.50005 0 0 0 0.67188,-0.4238 c 0.23246,-2.5732 2.3539,-4.5314 4.90039,-4.5332 0.34687,10e-4 0.69354,0.041 1.0332,0.1152 a 0.50005,0.50005 0 0 0 0.58203,-0.332 c 0.82913,-2.5215 3.06731,-4.2672 5.64844,-4.4668 a 0.50005,0.50005 0 0 0 -0.043,-0.9981 z" color="#000" font-family="sans-serif" font-weight="400" overflow="visible" white-space="normal"/><path fill="#f8b84e" d="m 468,1307.3622 c -3.86007,0 -7,3.14 -7,7 0,3.8601 3.13993,7 7,7 3.86007,0 7,-3.1399 7,-7 0,-3.86 -3.13993,-7 -7,-7 z m 0,1 c 3.31963,0 6,2.6804 6,6 0,3.3197 -2.68037,6 -6,6 -3.31963,0 -6,-2.6803 -6,-6 0,-3.3196 2.68037,-6 6,-6 z m -0.4061,2.0094 -2.71875,2.7188 c -0.72322,0.389 0.20112,1.3596 0.625,0.6562 l 2.03125,-2.0312 0,6.375 c -0.0458,0.6693 0.98332,0.6693 0.9375,0 l 0,-6.375 2.03125,2.0312 c 0.42388,0.7034 1.34822,-0.2672 0.625,-0.6562 l -2.6875,-2.6875 c -0.0188,-0.023 -0.0398,-0.043 -0.0625,-0.062 -0.37515,-0.3751 -0.58205,-0.1685 -0.78125,0.031 z" color="#000" font-family="Sans" font-weight="400" overflow="visible" style="line-height:normal;-inkscape-font-specification:Sans;text-indent:0;text-align:start;text-decoration-line:none;text-transform:none;block-progression:tb;marker:none"/></g></svg>